<svg xmlns="http://www.w3.org/2000/svg" viewBox="0 0 640 280"><defs><linearGradient id="s" x1="0" y1="0" x2="1" y2="0"><stop offset="0" stop-color="#eadcff"/><stop offset="1" stop-color="#f7d9ec"/></linearGradient></defs><rect width="640" height="280" fill="url(#s)"/><circle cx="0" cy="258" r="14" fill="#ffd6e8" opacity="0.64"/><circle cx="341" cy="92" r="26" fill="#d6f5e6" opacity="0.57"/><circle cx="438" cy="178" r="27" fill="#ffd6e8" opacity="0.50"/><circle cx="453" cy="195" r="7" fill="#d6f5e6" opacity="0.54"/><circle cx="590" cy="226" r="9" fill="#fff1b8" opacity="0.72"/><circle cx="441" cy="180" r="21" fill="#d9e8ff" opacity="0.71"/><circle cx="238" cy="94" r="28" fill="#ffd6e8" opacity="0.41"/><circle cx="190" cy="120" r="14" fill="#d9e8ff" opacity="0.57"/><circle cx="467" cy="246" r="8" fill="#ffd6e8" opacity="0.57"/><circle cx="326" cy="118" r="11" fill="#d9e8ff" opacity="0.37"/><circle cx="234" cy="96" r="23" fill="#d9e8ff" opacity="0.56"/><circle cx="106" cy="114" r="13" fill="#ffd6e8" opacity="0.52"/><circle cx="213" cy="149" r="22" fill="#ffd6e8" opacity="0.71"/><circle cx="293" cy="242" r="23" fill="#d6f5e6" opacity="0.56"/><circle cx="323" cy="193" r="30" fill="#ffd6e8" opacity="0.63"/><circle cx="161" cy="164" r="15" fill="#ffd6e8" opacity="0.51"/><circle cx="509" cy="246" r="9" fill="#d9e8ff" opacity="0.38"/><circle cx="260" cy="43" r="8" fill="#d9e8ff" opacity="0.44"/><circle cx="405" cy="40" r="18" fill="#fff1b8" opacity="0.41"/><circle cx="590" cy="248" r="29" fill="#d9e8ff" opacity="0.71"/><circle cx="487" cy="77" r="6" fill="#ffd6e8" opacity="0.38"/><circle cx="1" cy="173" r="12" fill="#d6f5e6" opacity="0.55"/><circle cx="440" cy="67" r="29" fill="#ffd6e8" opacity="0.50"/><circle cx="572" cy="33" r="19" fill="#ffffff" opacity="0.72"/><circle cx="408" cy="258" r="7" fill="#d9e8ff" opacity="0.43"/><circle cx="620" cy="158" r="24" fill="#ffd6e8" opacity="0.44"/></svg>
